<svg width="520" height="520" viewBox="0 0 520 520" fill="none" xmlns="http://www.w3.org/2000/svg">
  <rect width="520" height="520" rx="92" fill="#FFF7ED"/>
  <circle cx="402" cy="99" r="54" fill="#FDE68A"/>
  <circle cx="108" cy="412" r="64" fill="#DDD6FE"/>
  <path d="M132 354C112 284 136 192 210 156C276 124 368 145 399 220C428 292 381 393 293 405C226 414 153 425 132 354Z" fill="#7C3AED"/>
  <path d="M164 251C170 201 214 171 263 174C323 178 362 217 360 271C358 332 308 366 250 357C195 349 157 309 164 251Z" fill="white"/>
  <circle cx="230" cy="259" r="18" fill="#1F2937"/>
  <circle cx="307" cy="259" r="18" fill="#1F2937"/>
  <circle cx="237" cy="251" r="6" fill="white"/>
  <circle cx="314" cy="251" r="6" fill="white"/>
  <path d="M231 306C251 323 287 323 307 306" stroke="#1F2937" stroke-width="13" stroke-linecap="round"/>
  <path d="M175 153C171 112 197 83 232 81C268 78 294 103 296 135" stroke="#F59E0B" stroke-width="22" stroke-linecap="round"/>
  <path d="M360 182C398 164 434 177 450 207C467 239 455 275 426 292" stroke="#10B981" stroke-width="22" stroke-linecap="round"/>
  <path d="M148 348L108 401" stroke="#EC4899" stroke-width="24" stroke-linecap="round"/>
  <path d="M359 351L408 395" stroke="#EC4899" stroke-width="24" stroke-linecap="round"/>
  <circle cx="126" cy="123" r="16" fill="#EC4899"/>
  <circle cx="416" cy="393" r="14" fill="#F59E0B"/>
  <path d="M91 266H129M110 247V285" stroke="#7C3AED" stroke-width="10" stroke-linecap="round"/>
</svg>
